<svg id="Layer_1" data-name="Layer 1" xmlns="http://www.w3.org/2000/svg" viewBox="0 0 120.09 121.54">
  <title>Robot Broken_Icon2</title>
  <g id="Layer_2" data-name="Layer 2">
    <g id="Layer_1-2" data-name="Layer 1-2">
      <g id="Layer_5" data-name="Layer 5">
        <rect y="64.94" width="9.26" height="6.89" style="fill: #414da1"/>
        <rect x="98.23" y="62.14" width="9.26" height="6.89" style="fill: #414da1"/>
        <path d="M51.81,24.93c-.19-2.3-.26-9.36-.25-11.27v-.48c0-3.26,0-7.31,2.95-10.27a10.47,10.47,0,0,1,11-2.23A10.65,10.65,0,0,1,72.3,9.77l-4.27.5a6.35,6.35,0,0,0-4-5.55,6.21,6.21,0,0,0-6.5,1.21c-1.7,1.72-1.72,4.41-1.72,7.26v.47c0,2.18.08,8.88.24,10.91Z" transform="translate(0 0.01)" style="fill: #4655a5"/>
        <path d="M11.82,49.59h0V87.15h0a7.7,7.7,0,0,1-7.7-7.7V57.29a7.7,7.7,0,0,1,7.7-7.7Z" transform="translate(0 0.01)" style="fill: #7b86c2"/>
        <path d="M95,84.36h0V46.8h0a7.72,7.72,0,0,1,7.71,7.7V76.66A7.72,7.72,0,0,1,95,84.36Z" transform="translate(0 0.01)" style="fill: #7b86c2"/>
        <path d="M44.85,20.07H62a7.61,7.61,0,0,1,7.6,7.61H37.24a7.61,7.61,0,0,1,7.61-7.61Z" transform="translate(0 0.01)" style="fill: #7b86c2"/>
        <rect x="11.82" y="27.69" width="83.18" height="80.39" rx="20.2" style="fill: #c5cae6"/>
        <circle cx="70.89" cy="12.77" r="5.7" style="fill: #59c2ef"/>
        <circle cx="72.98" cy="57.72" r="11.44" style="fill: #414da1"/>
        <circle cx="72.98" cy="57.72" r="6.41" style="fill: #59c2ef"/>
        <polygon points="46.08 50.99 41.37 46.28 34.65 53.01 27.92 46.28 23.21 50.99 29.94 57.72 23.21 64.44 27.92 69.15 34.65 62.43 41.37 69.15 46.08 64.44 39.35 57.72 46.08 50.99" style="fill: #414da1"/>
        <polygon points="61.98 97.59 53.8 90.61 45.37 97.58 37.2 90.61 30.77 95.96 26.92 91.34 37.25 82.74 45.43 89.72 53.87 82.75 62.03 89.72 70.41 82.74 78.58 89.72 87.02 82.75 97.12 91.37 93.21 95.94 86.96 90.61 78.53 97.58 70.36 90.61 61.98 97.59" style="fill: #414da1"/>
        <circle cx="92.87" cy="94.32" r="27.22" style="fill: #9b52a0"/>
        <path d="M88.55,100.46a10.46,10.46,0,0,1,1.23-6.3c1.42-2.89,4.52-4.44,6.09-7.22a2.33,2.33,0,0,0-.43-3.25,3.6,3.6,0,0,0-6.06,2.12c0,.28-.32,3.27-.09,3.27H81.64c-.43-5.43,1.69-8.35,3.53-9.89a12,12,0,0,1,6.72-2.67c4.47-.4,8.51,1.52,10.32,4.89a9.23,9.23,0,0,1,.56,7.1,16.21,16.21,0,0,1-3.56,5.66l-.34.4a14.94,14.94,0,0,0-2.12,3,6.28,6.28,0,0,0-.51,2.9Z" transform="translate(0 0.01)" style="fill: #fff"/>
        <circle cx="92.4" cy="106.79" r="4.15" style="fill: #fff"/>
      </g>
    </g>
  </g>
</svg>
