<svg id="Layer_1" data-name="Layer 1" xmlns="http://www.w3.org/2000/svg" viewBox="0 0 102 122.28">
  <title>Battery_Icon2</title>
  <g id="Layer_2" data-name="Layer 2">
    <g id="Layer_1-2" data-name="Layer 1-2">
      <g id="Layer_3" data-name="Layer 3">
        <path d="M67.78,13.51V53.83H0V13.51A7.54,7.54,0,0,1,7.56,6h12V2.52A2.52,2.52,0,0,1,22.05,0H45.73a2.52,2.52,0,0,1,2.52,2.52h0V6h12a7.55,7.55,0,0,1,7.56,7.54h0Z" transform="translate(0)" style="fill: #d0d9dc"/>
        <path d="M67.78,53.85v51.57A7.55,7.55,0,0,1,60.26,113H7.56A7.55,7.55,0,0,1,0,105.46V53.85Z" transform="translate(0)" style="fill: #8cc34a"/>
        <path d="M71.51,110.07A18.08,18.08,0,1,1,89.59,92h0a18.07,18.07,0,0,1-18.07,18.07Zm0-25.43A7.37,7.37,0,1,0,78.88,92h0a7.37,7.37,0,0,0-7.37-7.34Z" transform="translate(0)" style="fill: #465b65"/>
        <path d="M94.07,92a22.14,22.14,0,0,0-.22-3.15l8.09-4.67-8.43-14.6-8,4.6a22.7,22.7,0,0,0-5.6-3.34v-9.1H63.08v8.82a23.05,23.05,0,0,0-6,3.38l-7.56-4.35L41.09,84.17l7.42,4.27a22.91,22.91,0,0,0,0,7.11l-7.4,4.28,8.41,14.6,7.56-4.35a23.05,23.05,0,0,0,6,3.38v8.82H80v-9.11a23,23,0,0,0,5.6-3.34l8,4.6,8.4-14.6-8.08-4.7A23.35,23.35,0,0,0,94.07,92ZM71.15,108a16,16,0,1,1,16-16h0A16,16,0,0,1,71.15,108Z" transform="translate(0)" style="fill: #617d8c"/>
      </g>
    </g>
  </g>
</svg>
