<svg id="Layer_1" data-name="Layer 1" xmlns="http://www.w3.org/2000/svg" viewBox="0 0 127.63 122.51">
  <title>Game Controller_Icon_1-2</title>
  <g id="Layer_2" data-name="Layer 2">
    <g id="Layer_1-2" data-name="Layer 1-2">
      <g id="Layer_3" data-name="Layer 3">
        <g id="Layer_3-2" data-name="Layer 3-2">
          <path d="M57.21,31.7c-.59-.19.93-5.81,1.1-6.37a15.5,15.5,0,0,1,3.22-5.48,16.87,16.87,0,0,1,10.66-5.48c4-.55,8.14-.3,12.15-1.11a14.82,14.82,0,0,0,7.88-3.93C94.48,6.92,94.8,3.16,95,0h5.48s.4,11.75-6.32,15.18S82.59,19,77.58,19.49s-14.36.37-14.27,12.21Z" transform="translate(0.03)" style="fill: #556f7a"/>
          <path d="M120.58,92.48A286,286,0,0,0,117,59.84a68.66,68.66,0,0,0-6-20.21c-2.48-5-6.29-10.77-11.54-13-7.64-3.34-17.12,2.21-24.08,5.07H45.31c-7-2.85-16.52-8.34-24.19-5.07-5.24,2.21-9,8-11.51,13A67.31,67.31,0,0,0,3.66,59.84,283.88,283.88,0,0,0,0,92.48c-.17,4.11.42,8.54,2.9,11.88a12.33,12.33,0,0,0,9.1,4.86,11.47,11.47,0,0,0,6.63-1.71c4.11-2.6,6.4-7.59,9.59-11.12S34.89,87.87,39.59,86H81c4.68,1.84,8,6.85,11.31,10.36s5.48,8.52,9.59,11.12a11.36,11.36,0,0,0,6.62,1.71,12.25,12.25,0,0,0,9.1-4.86C120.12,101,120.71,96.63,120.58,92.48Z" transform="translate(0.03)" style="fill: #d0d9dc"/>
          <rect x="25.62" y="42.86" width="11.81" height="11.81" style="fill: #78909c"/>
          <rect x="37.43" y="54.67" width="11.81" height="11.81" style="fill: #78909c"/>
          <rect x="25.62" y="66.48" width="11.81" height="11.81" style="fill: #78909c"/>
          <rect x="13.81" y="54.67" width="11.81" height="11.81" style="fill: #78909c"/>
          <rect x="71.71" y="40.48" width="33.89" height="33.89" rx="4.41" transform="translate(-14.61 79.51) rotate(-45)" style="fill: #fff"/>
          <circle cx="88.69" cy="68.76" r="5.55" style="fill: #8cc34a"/>
          <circle cx="88.69" cy="46.1" r="5.55" style="fill: #fdc113"/>
          <circle cx="100.54" cy="57.43" r="5.55" style="fill: #ef4538"/>
          <circle cx="77.67" cy="57.43" r="5.55" style="fill: #488fcc"/>
        </g>
        <polygon points="127.63 82.66 116.98 72 102.37 86.61 87.78 72 77.13 82.66 91.73 97.25 77.13 111.85 87.78 122.51 102.37 107.91 116.98 122.51 127.63 111.85 113.03 97.25 127.63 82.66" style="fill: #ef4538"/>
      </g>
    </g>
  </g>
</svg>
