<svg id="Layer_1" data-name="Layer 1" xmlns="http://www.w3.org/2000/svg" viewBox="0 0 109.48 123.37">
  <title>Color_Icon2</title>
  <g id="Layer_2" data-name="Layer 2">
    <g id="Layer_1-2" data-name="Layer 1-2">
      <g id="Layer_2-2" data-name="Layer 2-2">
        <path d="M58.68,0C76.35.13,94.27,6,104,20.71a33.46,33.46,0,0,1,4.23,27.41c-2.6,9.36-8.8,16-16.58,21.47-3.44,2.43-7.3,5.09-8.13,9.21s1.9,7.63,3,11.5a28.37,28.37,0,0,1,1,10,22.8,22.8,0,0,1-9,16.42c-7.79,5.8-18.45,7.35-27.92,6.37-.94-.11-1.88-.23-2.81-.39-12.53-2.09-24-9.31-32-19.06-.4-.49-.8-1-1.18-1.49C4.43,88.88,0,71.85,0,55.17,0,44.45,1.84,33.24,7.45,23.93c5.94-9.79,16.11-17.2,27-20.51A83.13,83.13,0,0,1,58.68,0Z" transform="translate(0 0)" style="fill: #fdc113"/>
        <circle cx="58.09" cy="96.49" r="12.81" style="fill: #fff"/>
        <circle cx="24.31" cy="69.21" r="11.26" style="fill: #ef4523"/>
        <circle cx="27.62" cy="35" r="11.26" style="fill: #4daf4f"/>
        <circle cx="58.69" cy="19.93" r="11.26" style="fill: #488fcc"/>
        <circle cx="86.83" cy="38.14" r="11.26" style="fill: #904098"/>
      </g>
    </g>
  </g>
</svg>
