<svg id="Layer_1" data-name="Layer 1" xmlns="http://www.w3.org/2000/svg" viewBox="0 0 124.34 124.46">
  <title>Maintenance_Icon2</title>
  <g id="Layer_2" data-name="Layer 2">
    <g id="Layer_1-2" data-name="Layer 1-2">
      <g id="Layer_3" data-name="Layer 3">
        <path d="M123.1,19.86l-14.5,14.5a4.89,4.89,0,0,1-6.92,0h0L90.31,23a4.88,4.88,0,0,1,0-6.9h0L105,1.4A26.09,26.09,0,0,0,78.2,7.45c-8.15,8.15-9.57,20.65-4.37,30.74L4.15,102.67a12.56,12.56,0,0,0-.68,17.74l.34.35h0a12.54,12.54,0,0,0,17.74,0l.34-.36L86.48,50.62a26.3,26.3,0,0,0,30.37-4.57A26,26,0,0,0,123.1,19.86Z" transform="translate(0 0.03)" style="fill: #617d8c"/>
        <path d="M4.62.4c2.84,1.53,6,2.77,9.08,4.09A35.53,35.53,0,0,1,22,9.38a7,7,0,0,1,1.41,1.88c.38.72.68,1.51,1,2.27a10.65,10.65,0,0,0,1.18,2.11,22.22,22.22,0,0,0,1.54,1.73q3.12,3.48,6.29,6.9l6.35,6.82,6.43,6.76c4.31,4.46,8.66,8.88,13.16,13.23L50.6,59.83C46.36,55.34,41.92,51,37.46,46.67L30.7,40.21l-6.83-6.35L17,27.58c-.59-.51-1.14-1.09-1.76-1.54a11.54,11.54,0,0,0-2.11-1.19c-.76-.34-1.55-.64-2.27-1A6.88,6.88,0,0,1,9,22.41a34.78,34.78,0,0,1-4.87-8.3C2.78,11,1.54,7.86,0,5Z" transform="translate(0 0.03)" style="fill: #b0bec5"/>
        <path d="M70.16,51.62,51.48,70.3,49.81,69c-1.82-1.49-4.47-2.85-6.36-4.27a4.35,4.35,0,0,1-.87-6.09h0c.13-.16.26-.31.4-.46L58.13,43a4.35,4.35,0,0,1,6.15,0,3.72,3.72,0,0,1,.41.48C66.11,45.35,66.54,47.21,68,49Z" transform="translate(0 0.03)" style="fill: #f8981d"/>
        <path d="M118.67,118.37a19.46,19.46,0,0,1-7.71,5.11c-14.47,4.62-26.4-17.09-33.2-26.3A156.83,156.83,0,0,0,65.08,81.57c-4.15-4.32-9-7.61-13.59-11.27L70.16,51.62C79,62.18,88.1,71.78,99.52,79.85S134.13,102.76,118.67,118.37Z" transform="translate(0 0.03)" style="fill: #fdc113"/>
      </g>
    </g>
  </g>
</svg>
