<svg id="Layer_1" data-name="Layer 1" xmlns="http://www.w3.org/2000/svg" viewBox="0 0 101.72 122.28">
  <title>Charging_Icon2</title>
  <g id="Layer_2" data-name="Layer 2">
    <g id="Layer_1-2" data-name="Layer 1-2">
      <g id="Layer_2-2" data-name="Layer 2-2">
        <polygon points="76.36 5.86 76.36 21.43 84.75 21.43 70.54 44.27 70.54 28.71 62.14 28.71 76.36 5.86" style="fill: #fdc113"/>
        <rect x="80.32" y="3.51" width="9.71" height="2.49" transform="translate(32.8 72.07) rotate(-55.3)" style="fill: #f36e43"/>
        <rect x="86.38" y="8.99" width="9.76" height="2.49" transform="translate(16.05 62.88) rotate(-41.38)" style="fill: #f36e43"/>
        <rect x="90.15" y="34.88" width="2.49" height="10.05" transform="translate(1.14 82.26) rotate(-48.72)" style="fill: #f36e43"/>
        <rect x="83.79" y="40.42" width="2.49" height="10.46" transform="translate(-10.14 61.48) rotate(-37.67)" style="fill: #f36e43"/>
        <rect x="60.32" y="-0.16" width="2.49" height="9.71" transform="translate(8.3 35.88) rotate(-34.69)" style="fill: #f36e43"/>
        <rect x="54.22" y="5.3" width="2.49" height="9.76" transform="translate(11.19 45.07) rotate(-48.62)" style="fill: #f36e43"/>
        <rect x="50.3" y="38.61" width="10.05" height="2.49" transform="translate(-12.51 46.43) rotate(-41.3)" style="fill: #f36e43"/>
        <rect x="56.3" y="44.04" width="10.48" height="2.49" transform="translate(-11.94 66.13) rotate(-52.18)" style="fill: #f36e43"/>
        <polygon points="101.72 22.58 94.47 22.58 94.47 17.53 87.02 25.01 94.47 32.48 94.47 27.54 101.72 27.54 101.72 22.58" style="fill: #dc3326"/>
        <polygon points="44.96 22.58 52.21 22.58 52.21 17.53 59.66 25.01 52.21 32.48 52.21 27.54 44.96 27.54 44.96 22.58" style="fill: #dc3326"/>
        <path d="M60.54,59.06H71.75l.14,10.79s-30,32.83-40.81,32.78L17.19,90.53S30.8,87.9,39.37,80,60.54,59.06,60.54,59.06Z" transform="translate(0.03 0)" style="fill: #95a5a6"/>
        <rect x="56.99" y="67.21" width="9.37" height="3.74" transform="translate(-30.75 63.67) rotate(-44.89)" style="fill: #fff"/>
        <circle cx="53.8" cy="76.83" r="2.23" style="fill: #fff"/>
        <circle cx="48.42" cy="82.38" r="2.23" style="fill: #fff"/>
        <polygon points="43.65 39.91 57.32 56.7 47.46 66.78 37.05 54.8 43.65 39.91" style="fill: #95a5a6"/>
        <polygon points="20.59 70.6 31.75 80.84 17.22 87.5 6.36 78.43 20.59 70.6" style="fill: #95a5a6"/>
        <path d="M.36,73.76A3,3,0,0,1,0,72.59c-.3-4.81,1.79-10.59,3.7-15C9.13,45.18,21.28,34.32,35.28,33.29a4.88,4.88,0,0,1,3.21.65,4.38,4.38,0,0,1,1.42,3.24c.3,3.88-1.67,7.41-3.74,10.53-.39.59-4.61,7-4.33,7.31L44.89,69.09l-10,10L21.73,65.78c-.26-.27-4.11,2.19-4.5,2.41-4.55,2.56-9.16,6-14.52,6.57a2.72,2.72,0,0,1-1.85-.34A1.71,1.71,0,0,1,.36,73.76Z" transform="translate(0.03 0)" style="fill: #95a5a6"/>
        <path d="M39.3,104.66l21.18,17.62,9.74-7.35L49.87,97.11C45.69,100.41,42.06,102.89,39.3,104.66Z" transform="translate(0.03 0)" style="fill: #95a5a6"/>
        <path d="M72.44,76.18c-2.92,3.19-5.78,6.12-8.56,8.72l17,19.39,7.35-9.75Z" transform="translate(0.03 0)" style="fill: #95a5a6"/>
        <path d="M53.46,94.27l12.31,12.31,6.82-6.83L60.75,87.92C58.21,90.26,55.77,92.38,53.46,94.27Z" transform="translate(0.03 0)" style="fill: #95a5a6"/>
      </g>
    </g>
  </g>
</svg>
